<?xml version="1.0" ?><svg id="Layer_1" style="enable-background:new 0 0 512 512;" version="1.1" viewBox="0 0 512 512" xml:space="preserve" xmlns="http://www.w3.org/2000/svg" xmlns:xlink="http://www.w3.org/1999/xlink"><style type="text/css">
	.st0{fill:#1EF6F6;}
	.st1{fill:#FDDD7B;}
	.st2{fill:#EAF3F2;}
	.st3{fill:#D4FF93;}
	.st4{fill:#FD535F;}
	.st5{stroke:#000000;stroke-width:2;stroke-linecap:round;stroke-linejoin:round;stroke-miterlimit:10;}
	.st6{fill:none;stroke:#000000;stroke-width:2;stroke-linecap:round;stroke-linejoin:round;stroke-miterlimit:10;}
	.st7{fill:#1EF6F6;stroke:#000000;stroke-width:2;stroke-linecap:round;stroke-linejoin:round;stroke-miterlimit:10;}
</style><g><g><path class="st1" d="M377.65,8.72H136.32c-16.6,0-30.05,13.46-30.05,30.05V78.1h301.44V38.78    C407.71,22.18,394.25,8.72,377.65,8.72z"/><path d="M407.7,85.83H106.27c-4.27,0-7.73-3.46-7.73-7.73V38.78C98.54,17.95,115.49,1,136.32,1h241.33    c20.83,0,37.78,16.95,37.78,37.78v39.33C415.43,82.38,411.98,85.83,407.7,85.83z M113.99,70.38h285.98v-31.6    c0-12.31-10.01-22.32-22.32-22.32H136.32c-12.32,0-22.33,10.01-22.33,22.32V70.38z"/></g><g><path class="st0" d="M460.67,190.42l2.28,38.18c1.28,21.45-13.28,39.04-32.55,39.04h0c-19.26,0-35.58-17.59-36.43-39.04    l-1.52-38.18"/><path d="M430.4,275.38c-23.33,0-43.13-20.84-44.15-46.46l-1.52-38.18c-0.17-4.26,3.15-7.86,7.41-8.03    c4.33-0.34,7.86,3.15,8.03,7.41l1.52,38.18c0.69,17.44,13.58,31.63,28.71,31.63c6.39,0,12.41-2.66,16.95-7.47    c5.55-5.88,8.42-14.41,7.89-23.39l-2.28-38.18c-0.26-4.26,2.99-7.92,7.25-8.17c4.17-0.23,7.92,2.99,8.17,7.25l2.28,38.18    c0.78,13.21-3.61,25.94-12.06,34.91C451.11,271,441.1,275.38,430.4,275.38z"/></g><g><path class="st1" d="M392.45,190.42l1.52,38.18c0.85,21.45-14.06,39.04-33.32,39.04h0c-19.26,0-35.23-17.59-35.65-39.04    l-0.76-38.18"/><path d="M360.65,275.38c-23.41,0-42.87-20.91-43.38-46.62l-0.76-38.18c-0.08-4.26,3.31-7.8,7.58-7.88    c4.19,0.26,7.8,3.31,7.88,7.58l0.76,38.18c0.34,17.35,12.87,31.47,27.92,31.47c6.43,0,12.55-2.68,17.22-7.54    c5.68-5.92,8.74-14.47,8.38-23.47l-1.52-38.18c-0.17-4.26,3.15-7.86,7.41-8.03c4.33-0.34,7.86,3.15,8.03,7.41l1.52,38.18    c0.53,13.18-4.1,25.86-12.69,34.8C381.4,271.02,371.32,275.38,360.65,275.38z"/></g><g><path class="st2" d="M324.24,190.42l0.76,38.18c0.43,21.45-14.84,39.04-34.1,39.04h0c-19.26,0-34.88-17.59-34.88-39.04v-38.18"/><path d="M290.9,275.38c-23.49,0-42.61-20.98-42.61-46.77v-38.18c0-4.27,3.46-7.73,7.73-7.73c4.27,0,7.73,3.46,7.73,7.73v38.18    c0,17.27,12.18,31.32,27.15,31.32c6.46,0,12.67-2.7,17.47-7.6c5.84-5.95,9.09-14.54,8.9-23.57l-0.76-38.18    c-0.08-4.26,3.31-7.8,7.58-7.88c4.19,0.26,7.8,3.31,7.88,7.58l0.76,38.18c0.26,13.15-4.6,25.79-13.32,34.68    C311.67,271.03,301.54,275.38,290.9,275.38z"/></g><g><path class="st0" d="M256.02,190.42v38.18c0,21.45-15.61,39.04-34.88,39.04h0c-19.26,0-34.53-17.59-34.1-39.04l0.76-38.18"/><path d="M221.14,275.38c-10.65,0-20.77-4.35-28.51-12.24c-8.72-8.9-13.58-21.54-13.31-34.69l0.75-38.18    c0.08-4.22,3.52-7.58,7.73-7.58c0.05,0,0.1,0,0.15,0c4.27,0.08,7.66,3.61,7.58,7.88l-0.75,38.18c-0.18,9.03,3.06,17.61,8.89,23.56    c4.81,4.9,11.02,7.61,17.48,7.61c14.97,0,27.15-14.05,27.15-31.32v-38.18c0-4.27,3.46-7.73,7.73-7.73c4.27,0,7.73,3.46,7.73,7.73    v38.18C263.75,254.4,244.63,275.38,221.14,275.38z"/></g><g><path class="st3" d="M187.8,190.42l-0.76,38.18c-0.43,21.45-16.39,39.04-35.65,39.04h0c-19.26,0-34.18-17.59-33.32-39.04    l1.52-38.18"/><path d="M151.39,275.38c-10.68,0-20.75-4.36-28.36-12.29c-8.59-8.93-13.21-21.61-12.69-34.8l1.52-38.18    c0.17-4.27,3.71-7.77,8.03-7.41c4.26,0.17,7.58,3.77,7.41,8.03l-1.52,38.18c-0.35,9,2.7,17.55,8.38,23.47    c4.67,4.86,10.79,7.54,17.22,7.54c15.05,0,27.58-14.12,27.93-31.48l0.75-38.18c0.08-4.22,3.52-7.58,7.73-7.58c0.05,0,0.1,0,0.15,0    c4.27,0.08,7.66,3.61,7.58,7.88l-0.75,38.18C194.25,254.47,174.8,275.38,151.39,275.38z"/></g><g><path class="st4" d="M119.59,190.42l-1.52,38.18c-0.85,21.45-17.17,39.04-36.43,39.04h0c-19.26,0-33.83-17.59-32.55-39.04    l2.28-38.18"/><path d="M81.63,275.38c-10.7,0-20.71-4.38-28.2-12.33c-8.45-8.96-12.84-21.69-12.05-34.9l2.28-38.18    c0.25-4.26,3.89-7.51,8.17-7.25c4.26,0.26,7.51,3.91,7.25,8.17l-2.28,38.18c-0.54,8.98,2.33,17.5,7.88,23.39    c4.54,4.81,10.56,7.47,16.95,7.47c15.14,0,28.02-14.19,28.71-31.63l1.52-38.18c0.17-4.27,3.71-7.77,8.03-7.41    c4.26,0.17,7.58,3.77,7.41,8.03l-1.52,38.18C124.77,254.54,104.96,275.38,81.63,275.38z"/></g><g><polygon class="st2" points="461.52,190.42 393.01,190.42 362.94,78.1 407.95,78.1   "/><path d="M461.52,198.15h-68.5c-3.5,0-6.56-2.35-7.46-5.73L355.48,80.11c-0.62-2.32-0.13-4.8,1.34-6.7    c1.46-1.91,3.73-3.03,6.13-3.03h45.01c2.98,0,5.69,1.71,6.97,4.4l53.56,112.32c1.15,2.39,0.98,5.21-0.44,7.45    C466.63,196.79,464.16,198.15,461.52,198.15z M398.94,182.7h50.33l-46.19-96.86h-30.07L398.94,182.7z"/></g><g><polygon class="st2" points="51.37,190.42 119.88,190.42 149.88,78.1 104.87,78.1   "/><path d="M119.88,198.15h-68.5c-2.65,0-5.12-1.36-6.53-3.6c-1.41-2.24-1.58-5.06-0.44-7.45L97.9,74.79    c1.28-2.69,3.99-4.41,6.97-4.41h45.01c2.4,0,4.66,1.12,6.13,3.02c1.46,1.91,1.95,4.38,1.34,6.7l-30,112.32    C126.44,195.8,123.38,198.15,119.88,198.15z M63.61,182.7h50.33l25.87-96.86h-30.07L63.61,182.7z"/></g><g><polygon class="st2" points="392.58,190.42 324.07,190.42 303.68,78.1 362.94,78.1   "/><path d="M392.58,198.15h-68.5c-3.74,0-6.93-2.67-7.61-6.35l-20.4-112.32c-0.41-2.26,0.2-4.57,1.68-6.33    c1.46-1.76,3.64-2.78,5.93-2.78h59.26c3.51,0,6.57,2.36,7.47,5.76l29.64,112.32c0.61,2.32,0.11,4.78-1.35,6.69    C397.24,197.04,394.98,198.15,392.58,198.15z M330.53,182.7h52.02l-25.57-96.86h-44.05L330.53,182.7z"/></g><g><polygon class="st2" points="324.51,190.42 256,190.42 256.4,78.1 303.68,78.1   "/><path d="M324.51,198.15H256c-2.05,0-4.02-0.81-5.47-2.27c-1.46-1.46-2.26-3.43-2.26-5.49l0.4-112.32c0.02-4.26,3.47-7.7,7.73-7.7    h47.28c3.73,0,6.92,2.66,7.6,6.32l20.83,112.32c0.42,2.26-0.19,4.59-1.66,6.35C328.98,197.13,326.8,198.15,324.51,198.15z     M263.75,182.7h51.46l-17.97-96.86h-33.16L263.75,182.7z"/></g><g><polygon class="st2" points="256.43,190.42 187.92,190.42 208.74,78.1 256.4,78.1   "/><path d="M256.43,198.15h-68.5c-2.29,0-4.47-1.02-5.94-2.78c-1.47-1.77-2.08-4.09-1.66-6.35L201.14,76.7    c0.68-3.66,3.87-6.32,7.6-6.32h47.66c4.26,0,7.73,3.46,7.73,7.73l0.03,112.32c0,2.05-0.81,4.01-2.26,5.46    C260.44,197.34,258.48,198.15,256.43,198.15z M197.21,182.7h51.49l-0.03-96.86h-33.5L197.21,182.7z"/></g><g><polygon class="st2" points="188.35,190.42 119.85,190.42 149.47,78.1 208.04,78.1   "/><path d="M188.35,198.15h-68.5c-2.4,0-4.66-1.11-6.12-3.01c-1.46-1.9-1.96-4.37-1.35-6.69L142,76.14c0.89-3.4,3.96-5.76,7.47-5.76    h58.57c2.29,0,4.45,1.01,5.92,2.75c1.47,1.75,2.09,4.06,1.7,6.31l-19.69,112.32C195.32,195.46,192.1,198.15,188.35,198.15z     M129.88,182.7h51.99l16.98-96.86h-43.41L129.88,182.7z"/></g><g><g><path d="M206.2,51.99c0.24,3.35,1.19,5.66,4,5.66c2.72,0,3.59-1.84,3.59-4.15c0-2.82-1.42-4.49-6.22-6.95     c-7.08-3.66-9.76-6.75-9.76-12.74c0-6.98,4.26-11.56,12.35-11.56c9.51,0,12.22,5.94,12.3,12.21h-9.02     c-0.16-2.84-0.68-5.28-3.34-5.28c-2.09,0-3.02,1.35-3.02,3.63c0,2.34,0.92,3.54,5.35,5.76c7.56,3.81,10.77,7.03,10.77,13.89     c0,6.75-3.95,12.12-13.11,12.12c-9.92,0-12.95-5.65-13.15-12.58H206.2z"/></g><g><path d="M227.62,23.01H237v15.42h7.08V23.01h9.42v40.8h-9.42v-17.5H237v17.5h-9.38V23.01z"/></g><g><path d="M286.44,43.14c0,14.96-4.08,21.43-14.23,21.43c-9.46,0-13.65-6.58-13.65-21.63c0-14.46,4.66-20.69,14.03-20.69     C282.22,22.25,286.44,28.95,286.44,43.14z M268.36,42.94c0,10.08,0.91,14.26,4.12,14.26c3.39,0,4.17-3.9,4.17-14.26     c0-9.68-0.82-13.28-4.17-13.28C269.25,29.66,268.36,33.43,268.36,42.94z"/></g><g><path d="M291.46,23.01h13.39c7.08,0,12.17,3.92,12.17,12.37c0,8.52-4.57,12.5-12.59,12.5h-3.66v15.93h-9.32V23.01z M300.78,40.71     h2.43c3.24,0,4.46-1.58,4.46-5.41c0-3.8-1.62-5.25-4.26-5.25h-2.63V40.71z"/></g></g><g><g><path d="M437.38,511H74.61c-4.27,0-7.73-3.46-7.73-7.73V267.65c0-4.27,3.46-7.73,7.73-7.73c4.27,0,7.73,3.46,7.73,7.73v227.89     h347.32V267.65c0-4.27,3.46-7.73,7.73-7.73s7.73,3.46,7.73,7.73v235.62C445.11,507.54,441.65,511,437.38,511z"/></g><g><path d="M498.15,511h-60.76c-4.27,0-7.73-3.46-7.73-7.73c0-4.27,3.46-7.73,7.73-7.73h60.76c4.27,0,7.73,3.46,7.73,7.73     C505.87,507.54,502.42,511,498.15,511z"/></g><g><path d="M74.61,511H13.85c-4.27,0-7.73-3.46-7.73-7.73c0-4.27,3.46-7.73,7.73-7.73h60.75c4.27,0,7.73,3.46,7.73,7.73     C82.34,507.54,78.88,511,74.61,511z"/></g></g><g><rect class="st3" height="171.24" width="125.94" x="110.69" y="299.01"/><path d="M236.62,477.98H110.69c-4.27,0-7.73-3.46-7.73-7.73V299.01c0-4.27,3.46-7.73,7.73-7.73h125.93c4.27,0,7.73,3.46,7.73,7.73    v171.25C244.34,474.52,240.89,477.98,236.62,477.98z M118.41,462.52h110.48V306.73H118.41V462.52z"/></g><g><rect class="st3" height="85.62" width="125.94" x="280.39" y="299.01"/><path d="M406.33,392.36H280.39c-4.27,0-7.73-3.46-7.73-7.73v-85.63c0-4.27,3.46-7.73,7.73-7.73h125.94c4.27,0,7.73,3.46,7.73,7.73    v85.63C414.06,388.9,410.6,392.36,406.33,392.36z M288.12,376.9H398.6v-70.17H288.12V376.9z"/></g><g><path d="M211.45,392.36h-21c-4.27,0-7.73-3.46-7.73-7.73s3.46-7.73,7.73-7.73h21c4.27,0,7.73,3.46,7.73,7.73    S215.72,392.36,211.45,392.36z"/></g></g></svg>